<?xml version="1.0" encoding="UTF-8" standalone="no"?>
<!-- Created with Inkscape (http://www.inkscape.org/) -->

<svg
   xmlns:dc="http://purl.org/dc/elements/1.1/"
   xmlns:cc="http://creativecommons.org/ns#"
   xmlns:rdf="http://www.w3.org/1999/02/22-rdf-syntax-ns#"
   xmlns:svg="http://www.w3.org/2000/svg"
   xmlns="http://www.w3.org/2000/svg"
   xmlns:sodipodi="http://sodipodi.sourceforge.net/DTD/sodipodi-0.dtd"
   xmlns:inkscape="http://www.inkscape.org/namespaces/inkscape"
   width="100"
   height="100"
   viewBox="0 0 26.458333 26.458334"
   version="1.1"
   id="svg8"
   inkscape:version="0.92.3 (2405546, 2018-03-11)"
   sodipodi:docname="brush_b.svg">
  <defs
     id="defs2" />
  <sodipodi:namedview
     id="base"
     pagecolor="#ffffff"
     bordercolor="#666666"
     borderopacity="1.0"
     inkscape:pageopacity="0.0"
     inkscape:pageshadow="2"
     inkscape:zoom="2.8"
     inkscape:cx="102.29209"
     inkscape:cy="18.609043"
     inkscape:document-units="px"
     inkscape:current-layer="layer1"
     showgrid="false"
     inkscape:snap-global="false"
     units="px"
     inkscape:window-width="1366"
     inkscape:window-height="745"
     inkscape:window-x="-8"
     inkscape:window-y="-8"
     inkscape:window-maximized="1" />
  <metadata
     id="metadata5">
    <rdf:RDF>
      <cc:Work
         rdf:about="">
        <dc:format>image/svg+xml</dc:format>
        <dc:type
           rdf:resource="http://purl.org/dc/dcmitype/StillImage" />
        <dc:title></dc:title>
      </cc:Work>
    </rdf:RDF>
  </metadata>
  <g
     inkscape:label="Layer 1"
     inkscape:groupmode="layer"
     id="layer1"
     transform="translate(0,-270.54163)">
    <g
       id="g4370">
      <circle
         r="10.961308"
         cy="283.77078"
         cx="13.229167"
         id="path3388"
         style="opacity:0.999;fill:none;fill-opacity:1;stroke:#000000;stroke-width:0.26458333;stroke-linecap:round;stroke-linejoin:miter;stroke-miterlimit:4;stroke-dasharray:none;stroke-dashoffset:26.45669365;stroke-opacity:0.99215686;paint-order:stroke fill markers" />
      <g
         id="g4357">
        <path
           style="opacity:0.999;fill:none;fill-opacity:1;stroke:#000000;stroke-width:0.26458333;stroke-linecap:round;stroke-linejoin:miter;stroke-miterlimit:4;stroke-dasharray:none;stroke-dashoffset:26.45669365;stroke-opacity:1;paint-order:stroke fill markers"
           d="m 14.643251,276.8282 c -0.392746,-0.0904 -0.83693,0.39233 -0.995845,1.0824 l -1.269164,5.51121 1.72345,0.39689 1.269164,-5.51121 c 0.158914,-0.69007 -0.02923,-1.31847 -0.421978,-1.40891 z m -0.05817,0.95103 c 0.223397,0.0514 0.361577,0.27427 0.309708,0.4995 l -0.187246,0.8131 c -0.05187,0.22525 -0.273558,0.36504 -0.496955,0.31359 -0.223401,-0.0514 -0.361473,-0.27408 -0.309602,-0.49933 l 0.187247,-0.8131 c 0.05187,-0.22523 0.273447,-0.36521 0.496848,-0.31376 z"
           id="rect1320"
           inkscape:connector-curvature="0" />
        <path
           style="opacity:0.999;fill:none;fill-opacity:1;stroke:#000000;stroke-width:0.26458333;stroke-linecap:round;stroke-linejoin:miter;stroke-miterlimit:4;stroke-dasharray:none;stroke-dashoffset:26.45669365;stroke-opacity:1;paint-order:stroke fill markers"
           d="m 12.289516,283.35741 a 1.7282423,1.9382972 50.673432 0 1 -1.826872,0.53203 c -0.0153,0.0371 -0.02717,0.0751 -0.03402,0.11403 -0.0029,0.009 -0.0062,0.0171 -0.0082,0.0259 l -0.4211116,1.82863 2.5090736,0.57781 0.168546,0.0388 2.509082,0.57781 0.421112,-1.82863 c 0.0021,-0.009 0.0026,-0.018 0.0039,-0.0269 0.01066,-0.0381 0.01695,-0.0774 0.01928,-0.11743 a 1.9382972,1.7282423 65.263393 0 1 -1.410147,-1.27747 l -0.539037,-0.12413 -0.216639,-0.0499 -0.136116,-0.0313 -0.1472,-0.0339 -0.136115,-0.0313 -0.216643,-0.0499 z"
           id="rect1356"
           inkscape:connector-curvature="0" />
        <path
           style="opacity:0.999;fill:none;fill-opacity:1;stroke:#000000;stroke-width:0.26458333;stroke-linecap:round;stroke-linejoin:miter;stroke-miterlimit:4;stroke-dasharray:none;stroke-dashoffset:26.45669365;stroke-opacity:1;paint-order:stroke fill markers"
           d="m 10.040628,285.79036 -0.9872001,3.71237 c -0.075376,0.28329 0.1522129,0.57821 0.4887399,0.65571 l 1.8884512,0.43489 0.431907,0.0995 1.888451,0.43489 c 0.336518,0.0775 0.670129,-0.0882 0.726296,-0.3759 l 0.73595,-3.77023 -2.37034,-0.54586 -0.431907,-0.0995 z"
           id="rect1391"
           inkscape:connector-curvature="0" />
        <path
           inkscape:connector-curvature="0"
           id="path1425"
           d="m 10.040628,285.79036 -0.9872001,3.71237 c -0.075376,0.28329 0.1522129,0.57821 0.4887399,0.65571 l 1.8884512,0.43489 0.431907,0.0995 1.888451,0.43489 c 0.336518,0.0775 0.670129,-0.0882 0.726296,-0.3759 l 0.73595,-3.77023 -2.37034,-0.54586 -0.431907,-0.0995 z"
           style="opacity:0.999;fill:none;fill-opacity:1;stroke:#000000;stroke-width:0.26458333;stroke-linecap:round;stroke-linejoin:miter;stroke-miterlimit:4;stroke-dasharray:none;stroke-dashoffset:26.45669365;stroke-opacity:1;paint-order:stroke fill markers" />
        <path
           style="opacity:0.999;fill:#000000;fill-opacity:1;stroke:none;stroke-width:0.26458333;stroke-linecap:round;stroke-linejoin:miter;stroke-miterlimit:4;stroke-dasharray:none;stroke-dashoffset:26.45669365;stroke-opacity:1;paint-order:stroke fill markers"
           d="m 10.514449,287.32979 -0.6744524,2.92874 0.3040984,0.07 0.674452,-2.92874 z m 0.842736,0.19408 -0.674452,2.92874 0.304099,0.07 0.674453,-2.92874 z m 0.842733,0.19407 -0.674452,2.92874 0.304111,0.07 0.674452,-2.92874 z m 0.842736,0.19407 -0.211877,0.92005 0.304109,0.07 0.211877,-0.92005 z m 0.842737,0.19407 -0.340969,1.48062 0.3041,0.07 0.340969,-1.48062 z m -1.219232,1.44082 -0.211904,0.92017 0.304109,0.07 0.211903,-0.92017 z"
           id="rect1412"
           inkscape:connector-curvature="0" />
        <path
           inkscape:connector-curvature="0"
           id="path2398"
           d="m 14.639808,276.84316 c -0.392746,-0.0904 -0.836933,0.39234 -0.995845,1.0824 l -1.269164,5.51122 1.72345,0.39689 1.269163,-5.51122 c 0.158913,-0.69006 -0.02923,-1.31846 -0.421976,-1.4089 z m -0.05817,0.95104 c 0.223397,0.0514 0.361576,0.27427 0.309709,0.4995 l -0.187248,0.8131 c -0.05187,0.22524 -0.273557,0.36504 -0.496954,0.31359 -0.223401,-0.0514 -0.361473,-0.27408 -0.309602,-0.49933 l 0.187248,-0.8131 c 0.05187,-0.22523 0.273446,-0.36521 0.496847,-0.31376 z"
           style="opacity:0.999;fill:none;fill-opacity:1;stroke:#000000;stroke-width:0.26458333;stroke-linecap:round;stroke-linejoin:miter;stroke-miterlimit:4;stroke-dasharray:none;stroke-dashoffset:26.45669365;stroke-opacity:1;paint-order:stroke fill markers" />
        <path
           inkscape:connector-curvature="0"
           id="path2400"
           d="m 12.286071,283.37238 a 1.7282423,1.9382972 50.673428 0 1 -1.82687,0.53203 c -0.0153,0.0371 -0.02721,0.075 -0.03401,0.11404 -0.0029,0.009 -0.0062,0.017 -0.0083,0.0259 l -0.4211115,1.82863 2.5090745,0.57781 0.168545,0.0388 2.509082,0.57781 0.421112,-1.82863 c 0.0021,-0.009 0.0027,-0.018 0.0039,-0.0269 0.01066,-0.0381 0.01695,-0.0774 0.01929,-0.11743 a 1.9382972,1.7282423 65.263396 0 1 -1.410148,-1.27747 l -0.539037,-0.12413 -0.216638,-0.0499 -0.136116,-0.0314 -0.147201,-0.0339 -0.136116,-0.0313 -0.216642,-0.0499 z"
           style="opacity:0.999;fill:none;fill-opacity:1;stroke:#000000;stroke-width:0.26458333;stroke-linecap:round;stroke-linejoin:miter;stroke-miterlimit:4;stroke-dasharray:none;stroke-dashoffset:26.45669365;stroke-opacity:1;paint-order:stroke fill markers" />
        <path
           inkscape:connector-curvature="0"
           id="path2402"
           d="m 10.037184,285.80534 -0.9872011,3.71237 c -0.075369,0.28328 0.1522142,0.5782 0.4887409,0.6557 l 1.8884512,0.43489 0.431906,0.0995 1.888452,0.43489 c 0.336517,0.0775 0.670129,-0.0882 0.726295,-0.3759 l 0.735951,-3.77023 -2.370341,-0.54586 -0.431906,-0.0995 z"
           style="opacity:0.999;fill:none;fill-opacity:1;stroke:#000000;stroke-width:0.26458333;stroke-linecap:round;stroke-linejoin:miter;stroke-miterlimit:4;stroke-dasharray:none;stroke-dashoffset:26.45669365;stroke-opacity:1;paint-order:stroke fill markers" />
        <path
           style="opacity:0.999;fill:none;fill-opacity:1;stroke:#000000;stroke-width:0.26458333;stroke-linecap:round;stroke-linejoin:miter;stroke-miterlimit:4;stroke-dasharray:none;stroke-dashoffset:26.45669365;stroke-opacity:1;paint-order:stroke fill markers"
           d="m 10.037184,285.80534 -0.9872011,3.71237 c -0.075369,0.28328 0.1522142,0.5782 0.4887409,0.6557 l 1.8884512,0.43489 0.431906,0.0995 1.888452,0.43489 c 0.336517,0.0775 0.670129,-0.0882 0.726295,-0.3759 l 0.735951,-3.77023 -2.370341,-0.54586 -0.431906,-0.0995 z"
           id="path2404"
           inkscape:connector-curvature="0" />
      </g>
    </g>
  </g>
</svg>
