<?xml version="1.0" encoding="UTF-8" standalone="no"?>
<svg
   xmlns:dc="http://purl.org/dc/elements/1.1/"
   xmlns:cc="http://creativecommons.org/ns#"
   xmlns:rdf="http://www.w3.org/1999/02/22-rdf-syntax-ns#"
   xmlns:svg="http://www.w3.org/2000/svg"
   xmlns="http://www.w3.org/2000/svg"
   id="svg8"
   version="1.1"
   viewBox="0 0 26.458333 26.458334"
   height="100"
   width="100">
  <defs
     id="defs2" />
  <metadata
     id="metadata5">
    <rdf:RDF>
      <cc:Work
         rdf:about="">
        <dc:format>image/svg+xml</dc:format>
        <dc:type
           rdf:resource="http://purl.org/dc/dcmitype/StillImage" />
        <dc:title></dc:title>
      </cc:Work>
    </rdf:RDF>
  </metadata>
  <g
     transform="translate(0,-270.54163)"
     id="layer1">
    <circle
       r="10.961308"
       cy="283.77078"
       cx="13.229167"
       id="path3388"
       style="opacity:0.99500002;fill:none;fill-opacity:1;stroke:#aa7f31;stroke-width:0.26458332;stroke-linecap:round;stroke-linejoin:miter;stroke-miterlimit:4;stroke-dasharray:none;stroke-dashoffset:26.45669365;stroke-opacity:0.99215686;paint-order:stroke fill markers" />
    <g
       style="opacity:0.98999999;stroke-width:0.52610469"
       transform="matrix(1.8748771,0.4317609,-0.42141656,1.8299579,61.730516,-206.47283)"
       id="g1634">
      <g
         style="stroke-width:0.83448666"
         id="brush"
         transform="matrix(0.63394802,0,0,0.6269775,-22.530088,120.70435)">
        <path
           id="rect1320"
           d="m 86.842119,216.47841 c -0.330434,0 -0.596498,0.48425 -0.596498,1.0857 v 4.80346 h 1.450014 v -4.80346 c 0,-0.60145 -0.265945,-1.0857 -0.596378,-1.0857 z m 0.12851,0.79824 c 0.187954,0 0.339354,0.15809 0.339354,0.3544 v 0.70868 c 0,0.19632 -0.1514,0.35428 -0.339354,0.35428 -0.187957,0 -0.339237,-0.15796 -0.339237,-0.35428 v -0.70868 c 0,-0.19631 0.15128,-0.3544 0.339237,-0.3544 z"
           style="opacity:1;fill:#aa7f31;fill-opacity:1;stroke:none;stroke-width:0.4415825;stroke-linecap:round;stroke-linejoin:miter;stroke-miterlimit:4;stroke-dasharray:none;stroke-dashoffset:26.45669365;stroke-opacity:1;paint-order:stroke fill markers" />
        <path
           id="rect1356"
           d="m 86.162882,222.33118 a 1.4324577,1.6284783 29.94368 0 1 -1.361731,0.78856 c -0.0054,0.0336 -0.0079,0.0673 -0.0062,0.10087 -6.97e-4,0.008 -0.0018,0.0153 -0.0018,0.023 v 1.5938 h 2.110994 0.141805 2.111001 v -1.5938 c 0,-0.008 -0.0012,-0.0154 -0.0018,-0.023 0.0015,-0.0336 -6.98e-4,-0.0673 -0.0062,-0.10087 a 1.6284783,1.4324577 60.05632 0 1 -1.361715,-0.78856 h -0.453515 -0.182268 -0.11452 -0.123846 -0.11452 -0.182271 z"
           style="opacity:1;fill:#ffff00;fill-opacity:1;stroke:none;stroke-width:0.4415825;stroke-linecap:round;stroke-linejoin:miter;stroke-miterlimit:4;stroke-dasharray:none;stroke-dashoffset:26.45669365;stroke-opacity:1;paint-order:stroke fill markers" />
        <path
           id="rect1391"
           d="m 84.81373,224.77355 -0.105694,3.26084 c -0.0081,0.24884 0.228,0.44956 0.511135,0.44956 h 1.588837 0.363382 1.588837 c 0.283127,0 0.519189,-0.20072 0.511128,-0.44956 l -0.105694,-3.26084 H 87.17139 86.808008 Z"
           style="opacity:1;fill:#0000ff;fill-opacity:1;stroke:none;stroke-width:0.4415825;stroke-linecap:round;stroke-linejoin:miter;stroke-miterlimit:4;stroke-dasharray:none;stroke-dashoffset:26.45669365;stroke-opacity:1;paint-order:stroke fill markers" />
        <path
           style="opacity:1;fill:#c3c58b;fill-opacity:1;stroke:none;stroke-width:0.4415825;stroke-linecap:round;stroke-linejoin:miter;stroke-miterlimit:4;stroke-dasharray:none;stroke-dashoffset:26.45669365;stroke-opacity:1;paint-order:stroke fill markers"
           d="m 84.81373,224.77355 -0.105694,3.26084 c -0.0081,0.24884 0.228,0.44956 0.511135,0.44956 h 1.588837 0.363382 1.588837 c 0.283127,0 0.519189,-0.20072 0.511128,-0.44956 l -0.105694,-3.26084 H 87.17139 86.808008 Z"
           id="path1425" />
        <path
           id="rect1412"
           d="m 85.475545,225.9574 v 2.55263 h 0.255851 v -2.55263 z m 0.709031,0 v 2.55263 h 0.255852 v -2.55263 z m 0.709028,0 v 2.55263 h 0.255862 v -2.55263 z m 0.709031,0 v 0.8019 h 0.25586 v -0.8019 z m 0.709031,0 v 1.29048 h 0.255853 v -1.29048 z m -0.709031,1.42494 v 0.802 h 0.25586 v -0.802 z"
           style="opacity:1;fill:#ffff00;fill-opacity:1;stroke:none;stroke-width:0.4415825;stroke-linecap:round;stroke-linejoin:miter;stroke-miterlimit:4;stroke-dasharray:none;stroke-dashoffset:26.45669365;stroke-opacity:1;paint-order:stroke fill markers" />
      </g>
      <g
         style="stroke:#aa7f31;stroke-width:1.04792154;stroke-opacity:1"
         id="brush__lineart"
         transform="matrix(0.5031484,0,0,0.50094576,-15.050519,148.53039)">
        <path
           style="opacity:1;fill:none;fill-opacity:1;stroke:#aa7f31;stroke-width:0.27726257;stroke-linecap:round;stroke-linejoin:miter;stroke-miterlimit:4;stroke-dasharray:none;stroke-dashoffset:26.45669365;stroke-opacity:1;paint-order:stroke fill markers"
           d="m 94.552264,215.411 c -0.416334,0 -0.751565,0.60609 -0.751565,1.35885 v 6.01195 h 1.826963 v -6.01195 c 0,-0.75276 -0.33508,-1.35885 -0.751413,-1.35885 z m 0.161918,0.99907 c 0.236815,0 0.427573,0.19787 0.427573,0.44356 v 0.88698 c 0,0.24571 -0.190758,0.44341 -0.427573,0.44341 -0.236819,0 -0.427426,-0.1977 -0.427426,-0.44341 v -0.88698 c 0,-0.24569 0.190607,-0.44356 0.427426,-0.44356 z"
           id="path2398" />
        <path
           style="opacity:1;fill:none;fill-opacity:1;stroke:#aa7f31;stroke-width:0.27726257;stroke-linecap:round;stroke-linejoin:miter;stroke-miterlimit:4;stroke-dasharray:none;stroke-dashoffset:26.45669365;stroke-opacity:1;paint-order:stroke fill markers"
           d="m 93.696451,222.73626 a 1.8017257,2.0417093 31.272996 0 1 -1.715729,0.98695 c -0.0068,0.0421 -0.01,0.0842 -0.0078,0.12625 -8.78e-4,0.01 -0.0023,0.0191 -0.0023,0.0288 v 1.99478 h 2.659773 0.178669 2.659781 v -1.99478 c 0,-0.01 -0.0015,-0.0193 -0.0023,-0.0288 0.0019,-0.042 -8.79e-4,-0.0842 -0.0078,-0.12625 a 2.0417093,1.8017257 58.727004 0 1 -1.71571,-0.98695 h -0.571412 -0.22965 -0.144291 -0.156042 -0.144291 -0.229654 z"
           id="path2400" />
        <path
           style="opacity:1;fill:none;fill-opacity:1;stroke:#aa7f31;stroke-width:0.27726257;stroke-linecap:round;stroke-linejoin:miter;stroke-miterlimit:4;stroke-dasharray:none;stroke-dashoffset:26.45669365;stroke-opacity:1;paint-order:stroke fill markers"
           d="m 91.996571,225.7931 -0.133171,4.08123 c -0.0102,0.31144 0.287272,0.56266 0.644011,0.56266 h 2.001875 0.457847 2.001875 c 0.356729,0 0.654159,-0.25122 0.644002,-0.56266 l -0.13317,-4.08123 h -2.512707 -0.457847 z"
           id="path2402" />
        <path
           id="path2404"
           d="m 91.996571,225.7931 -0.133171,4.08123 c -0.0102,0.31144 0.287272,0.56266 0.644011,0.56266 h 2.001875 0.457847 2.001875 c 0.356729,0 0.654159,-0.25122 0.644002,-0.56266 l -0.13317,-4.08123 h -2.512707 -0.457847 z"
           style="opacity:1;fill:none;fill-opacity:1;stroke:#aa7f31;stroke-width:0.27726257;stroke-linecap:round;stroke-linejoin:miter;stroke-miterlimit:4;stroke-dasharray:none;stroke-dashoffset:26.45669365;stroke-opacity:1;paint-order:stroke fill markers" />
      </g>
    </g>
  </g>
</svg>
