<?xml version="1.0" encoding="UTF-8" standalone="no"?>
<svg
   xmlns:dc="http://purl.org/dc/elements/1.1/"
   xmlns:cc="http://creativecommons.org/ns#"
   xmlns:rdf="http://www.w3.org/1999/02/22-rdf-syntax-ns#"
   xmlns:svg="http://www.w3.org/2000/svg"
   xmlns="http://www.w3.org/2000/svg"
   id="svg8"
   version="1.1"
   viewBox="0 0 26.458333 26.458334"
   height="100"
   width="100">
  <defs
     id="defs2" />
  <metadata
     id="metadata5">
    <rdf:RDF>
      <cc:Work
         rdf:about="">
        <dc:format>image/svg+xml</dc:format>
        <dc:type
           rdf:resource="http://purl.org/dc/dcmitype/StillImage" />
        <dc:title></dc:title>
      </cc:Work>
    </rdf:RDF>
  </metadata>
  <g
     transform="translate(0,-270.54163)"
     id="layer1">
    <g
       style="stroke:#000000;fill:none"
       id="g3669">
      <circle
         style="opacity:0.9020004;fill:none;fill-opacity:1;stroke:#000000;stroke-width:0.26458332;stroke-linecap:round;stroke-linejoin:miter;stroke-miterlimit:4;stroke-dasharray:none;stroke-dashoffset:26.45669365;stroke-opacity:1;paint-order:stroke fill markers"
         id="path3388"
         cx="13.229167"
         cy="283.77078"
         r="10.961308" />
      <g
         style="stroke:#000000;fill:none"
         transform="translate(-76.192891,23.579353)"
         id="crain__load">
        <path
           id="path1043"
           d="m 89.012143,257.41813 a 1.8548636,1.8547361 0 0 0 -1.854776,1.85465 1.8548636,1.8547361 0 0 0 1.854776,1.85465 1.8548636,1.8547361 0 0 0 1.805594,-1.43755 l -1.062946,0.18503 c -0.531461,0.0925 -1.033717,-0.26097 -1.126268,-0.79239 l -0.03074,-0.17612 c -0.06965,-0.39991 0.113417,-0.78318 0.434646,-0.98788 v -0.50008 a 1.8548636,1.8547361 0 0 0 -0.02029,-3.1e-4 z"
           style="opacity:1;fill:none;fill-opacity:1;stroke:#000000;stroke-width:0.26458332;stroke-linecap:round;stroke-linejoin:miter;stroke-miterlimit:4;stroke-dasharray:none;stroke-dashoffset:26.45669365;stroke-opacity:1;paint-order:stroke fill markers" />
        <path
           style="opacity:1;fill:none;fill-opacity:1;stroke:#000000;stroke-width:0.26458332;stroke-linecap:round;stroke-linejoin:miter;stroke-miterlimit:4;stroke-dasharray:none;stroke-dashoffset:26.45669365;stroke-opacity:1;paint-order:stroke fill markers"
           d="m 89.012143,257.41813 a 1.8548636,1.8547361 0 0 0 -1.854776,1.85465 1.8548636,1.8547361 0 0 0 1.854776,1.85465 1.8548636,1.8547361 0 0 0 1.805594,-1.43755 l -1.062946,0.18503 c -0.531461,0.0925 -1.033717,-0.26097 -1.126268,-0.79239 l -0.03074,-0.17612 c -0.06965,-0.39991 0.113417,-0.78318 0.434646,-0.98788 v -0.50008 a 1.8548636,1.8547361 0 0 0 -0.02029,-3.1e-4 z"
           id="path1058" />
        <path
           id="path1060"
           d="m 89.042779,254.02814 v 3.97423"
           style="fill:none;stroke:#000000;stroke-width:0.26458332px;stroke-linecap:butt;stroke-linejoin:miter;stroke-opacity:1" />
        <path
           style="fill:none;stroke:#000000;stroke-width:0.26458332px;stroke-linecap:butt;stroke-linejoin:miter;stroke-opacity:1"
           d="m 89.42206,259.7374 v 3.97423"
           id="path1062" />
        <rect
           y="265.35046"
           x="83.295387"
           height="0.87199116"
           width="12.253341"
           id="rect1064"
           style="opacity:1;fill:none;fill-opacity:1;stroke:#000000;stroke-width:0.26458332;stroke-linecap:round;stroke-linejoin:miter;stroke-miterlimit:4;stroke-dasharray:none;stroke-dashoffset:26.45669365;stroke-opacity:1;paint-order:stroke fill markers" />
        <rect
           style="opacity:1;fill:none;fill-opacity:1;stroke:#000000;stroke-width:0.26458332;stroke-linecap:round;stroke-linejoin:miter;stroke-miterlimit:4;stroke-dasharray:none;stroke-dashoffset:26.45669365;stroke-opacity:1;paint-order:stroke fill markers"
           id="rect1069"
           width="12.253341"
           height="0.25598523"
           x="83.295387"
           y="264.86029" />
        <rect
           y="264.37015"
           x="83.295387"
           height="0.25598523"
           width="12.253341"
           id="rect1071"
           style="opacity:1;fill:none;fill-opacity:1;stroke:#000000;stroke-width:0.26458332;stroke-linecap:round;stroke-linejoin:miter;stroke-miterlimit:4;stroke-dasharray:none;stroke-dashoffset:26.45669365;stroke-opacity:1;paint-order:stroke fill markers" />
        <rect
           style="opacity:1;fill:none;fill-opacity:1;stroke:#000000;stroke-width:0.26458332;stroke-linecap:round;stroke-linejoin:miter;stroke-miterlimit:4;stroke-dasharray:none;stroke-dashoffset:26.45669365;stroke-opacity:1;paint-order:stroke fill markers"
           id="rect1073"
           width="12.253341"
           height="0.25598523"
           x="83.295387"
           y="263.88" />
        <g
           style="stroke-width:1.68120754;stroke:#000000;fill:none"
           transform="matrix(0.59483101,0,0,0.59479012,32.33603,111.62108)"
           id="g1081">
          <path
             style="fill:none;stroke:#000000;stroke-width:0.44481948px;stroke-linecap:butt;stroke-linejoin:miter;stroke-opacity:1"
             d="M 95.953463,249.02283 85.83063,255.67115"
             id="path1075" />
          <path
             id="path1077"
             d="m 95.986872,249.02283 10.122828,6.64832"
             style="fill:none;stroke:#000000;stroke-width:0.44481948px;stroke-linecap:butt;stroke-linejoin:miter;stroke-opacity:1" />
        </g>
      </g>
    </g>
  </g>
</svg>
