<?xml version="1.0" encoding="UTF-8" standalone="no"?>
<!-- Created with Inkscape (http://www.inkscape.org/) -->

<svg
   xmlns:dc="http://purl.org/dc/elements/1.1/"
   xmlns:cc="http://creativecommons.org/ns#"
   xmlns:rdf="http://www.w3.org/1999/02/22-rdf-syntax-ns#"
   xmlns:svg="http://www.w3.org/2000/svg"
   xmlns="http://www.w3.org/2000/svg"
   xmlns:sodipodi="http://sodipodi.sourceforge.net/DTD/sodipodi-0.dtd"
   xmlns:inkscape="http://www.inkscape.org/namespaces/inkscape"
   width="100"
   height="100"
   viewBox="0 0 26.458333 26.458334"
   version="1.1"
   id="svg8"
   inkscape:version="0.92.3 (2405546, 2018-03-11)"
   sodipodi:docname="drill_b.svg">
  <defs
     id="defs2" />
  <sodipodi:namedview
     id="base"
     pagecolor="#ffffff"
     bordercolor="#666666"
     borderopacity="1.0"
     inkscape:pageopacity="0.0"
     inkscape:pageshadow="2"
     inkscape:zoom="2.8"
     inkscape:cx="97.515206"
     inkscape:cy="29.50641"
     inkscape:document-units="px"
     inkscape:current-layer="layer1"
     showgrid="false"
     inkscape:snap-global="false"
     units="px"
     inkscape:window-width="1366"
     inkscape:window-height="745"
     inkscape:window-x="-8"
     inkscape:window-y="-8"
     inkscape:window-maximized="1" />
  <metadata
     id="metadata5">
    <rdf:RDF>
      <cc:Work
         rdf:about="">
        <dc:format>image/svg+xml</dc:format>
        <dc:type
           rdf:resource="http://purl.org/dc/dcmitype/StillImage" />
        <dc:title></dc:title>
      </cc:Work>
    </rdf:RDF>
  </metadata>
  <g
     inkscape:label="Layer 1"
     inkscape:groupmode="layer"
     id="layer1"
     transform="translate(0,-270.54163)">
    <g
       id="g4263">
      <circle
         r="10.961308"
         cy="283.77078"
         cx="13.229167"
         id="path3388"
         style="opacity:0.995;fill:none;fill-opacity:1;stroke:#000000;stroke-width:0.26458333;stroke-linecap:round;stroke-linejoin:miter;stroke-miterlimit:4;stroke-dasharray:none;stroke-dashoffset:26.45669365;stroke-opacity:0.98039216;paint-order:stroke fill markers" />
      <rect
         y="280.00433"
         x="14.158779"
         height="3.115133"
         width="2.7937131"
         id="rect1278"
         style="opacity:0.995;fill:none;fill-opacity:1;stroke:#000000;stroke-width:0.26458333;stroke-linecap:round;stroke-linejoin:miter;stroke-miterlimit:4;stroke-dasharray:none;stroke-dashoffset:26.45669365;stroke-opacity:1;paint-order:stroke fill markers" />
      <path
         inkscape:connector-curvature="0"
         id="rect1280"
         d="m 16.976103,280.07133 v 2.87747 h 0.704294 c 0.31785,0 0.573784,-0.25503 0.573784,-0.5718 v -1.73386 c 0,-0.31678 -0.255934,-0.57181 -0.573784,-0.57181 z m 0.427142,0.32272 h 0.258964 c 0.08021,0 0.144826,0.0644 0.144826,0.14425 0,0.0799 -0.06464,0.14423 -0.144826,0.14423 h -0.258964 c -0.08021,0 -0.144826,-0.0644 -0.144826,-0.14423 0,-0.0799 0.06464,-0.14425 0.144826,-0.14425 z m 0,0.48592 h 0.258964 c 0.08021,0 0.144826,0.0644 0.144826,0.14408 0,0.0799 -0.06464,0.14425 -0.144826,0.14425 h -0.258964 c -0.08021,0 -0.144826,-0.0644 -0.144826,-0.14425 0,-0.0799 0.06464,-0.14408 0.144826,-0.14408 z m 0,0.48576 h 0.258964 c 0.08021,0 0.144826,0.0645 0.144826,0.14425 0,0.0799 -0.06464,0.14425 -0.144826,0.14425 h -0.258964 c -0.08021,0 -0.144826,-0.0644 -0.144826,-0.14425 0,-0.0799 0.06464,-0.14425 0.144826,-0.14425 z m 0,0.48597 h 0.258964 c 0.08021,0 0.144826,0.0645 0.144826,0.14425 0,0.0799 -0.06464,0.14407 -0.144826,0.14407 h -0.258964 c -0.08021,0 -0.144826,-0.0644 -0.144826,-0.14407 0,-0.0799 0.06464,-0.14425 0.144826,-0.14425 z m 0,0.48593 h 0.258964 c 0.08021,0 0.144826,0.064 0.144826,0.14408 0,0.0799 -0.06464,0.14424 -0.144826,0.14424 h -0.258964 c -0.08021,0 -0.144826,-0.0645 -0.144826,-0.14424 0,-0.0799 0.06464,-0.14408 0.144826,-0.14408 z"
         style="opacity:0.99500002;fill:none;fill-opacity:1;stroke:#000000;stroke-width:0.18520833;stroke-linecap:round;stroke-linejoin:miter;stroke-miterlimit:4;stroke-dasharray:none;stroke-dashoffset:26.45669365;stroke-opacity:1;paint-order:stroke fill markers" />
      <rect
         transform="scale(-1,1)"
         style="opacity:0.995;fill:none;fill-opacity:1;stroke:#000000;stroke-width:0.26458333;stroke-linecap:round;stroke-linejoin:miter;stroke-miterlimit:4;stroke-dasharray:none;stroke-dashoffset:26.45669365;stroke-opacity:1;paint-order:stroke fill markers"
         id="rect1285"
         width="0.8467657"
         height="3.115133"
         x="-14.158779"
         y="280.00433" />
      <path
         inkscape:connector-curvature="0"
         id="rect1287"
         d="m 11.355156,280.44365 c -0.237668,0 -0.429043,0.19149 -0.429043,0.42934 v 1.4877 c 0,0.23785 0.191375,0.42934 0.429043,0.42934 h 1.077562 c 0.01099,0 0.02181,-6.5e-4 0.03257,-0.002 v -2.34313 c -0.01068,-6.4e-4 -0.02151,-8.5e-4 -0.03257,-8.5e-4 z"
         style="opacity:0.995;fill:none;fill-opacity:1;stroke:#000000;stroke-width:0.26458333;stroke-linecap:round;stroke-linejoin:miter;stroke-miterlimit:4;stroke-dasharray:none;stroke-dashoffset:26.45669365;stroke-opacity:1;paint-order:stroke fill markers" />
      <path
         inkscape:connector-curvature="0"
         id="path1292"
         d="m 13.048658,280.09632 c -0.237696,0 -0.429044,0.24684 -0.429044,0.5535 v 1.91812 c 0,0.30667 0.191348,0.55366 0.429044,0.55366 h 0.129801 v -3.02528 z"
         style="opacity:0.995;fill:none;fill-opacity:1;stroke:#000000;stroke-width:0.26458333;stroke-linecap:round;stroke-linejoin:miter;stroke-miterlimit:4;stroke-dasharray:none;stroke-dashoffset:26.45669365;stroke-opacity:1;paint-order:stroke fill markers" />
      <path
         inkscape:connector-curvature="0"
         id="rect1307"
         d="m 14.87718,283.2426 v 1.27796 h 0.809464 l 0.75747,2.02084 h -1.253948 c -0.176891,0 -0.319318,0.1621 -0.319318,0.36324 v 0.63521 h 3.113021 v -0.63521 c 0,-0.0544 -0.01099,-0.10548 -0.02987,-0.15174 -0.004,-0.0251 -0.01052,-0.0504 -0.02001,-0.0756 l -1.167846,-3.11564 c -0.004,-0.0112 -0.0088,-0.0208 -0.01338,-0.0309 v -0.28833 z"
         style="opacity:0.995;fill:none;fill-opacity:1;stroke:#000000;stroke-width:0.26458333;stroke-linecap:round;stroke-linejoin:miter;stroke-miterlimit:4;stroke-dasharray:none;stroke-dashoffset:26.45669365;stroke-opacity:1;paint-order:stroke fill markers" />
      <path
         inkscape:connector-curvature="0"
         id="rect1309"
         d="m 14.870877,287.60365 v 0.55906 c 0,0.177 0.142435,0.31955 0.319319,0.31955 h 2.474386 c 0.176892,0 0.319318,-0.14247 0.319318,-0.31955 v -0.55906 z"
         style="opacity:0.995;fill:none;fill-opacity:1;stroke:#000000;stroke-width:0.26458333;stroke-linecap:round;stroke-linejoin:miter;stroke-miterlimit:4;stroke-dasharray:none;stroke-dashoffset:26.45669365;stroke-opacity:1;paint-order:stroke fill markers" />
      <path
         inkscape:connector-curvature="0"
         id="rect1297"
         d="m 10.72097,281.07857 -0.477842,0.0706 c -0.148378,0.0218 -0.2689952,0.14406 -0.2697711,0.32332 v 0 8.5e-4 0.17473 8.5e-4 0 c 0,0.17928 0.1214041,0.30177 0.2697711,0.3236 l 0.477842,0.0703 c 0.14884,0.0218 0.269951,-0.1447 0.269951,-0.32494 v -0.13942 -0.037 -0.1391 c 0,-0.18019 -0.121101,-0.34714 -0.269951,-0.32523 z"
         style="opacity:0.995;fill:none;fill-opacity:1;stroke:#000000;stroke-width:0.26458333;stroke-linecap:round;stroke-linejoin:miter;stroke-miterlimit:4;stroke-dasharray:none;stroke-dashoffset:26.45669365;stroke-opacity:1;paint-order:stroke fill markers" />
      <rect
         y="280.0043"
         x="-14.158787"
         height="3.115133"
         width="0.8467657"
         id="rect2322"
         style="opacity:0.995;fill:none;fill-opacity:1;stroke:#000000;stroke-width:0.26458333;stroke-linecap:round;stroke-linejoin:miter;stroke-miterlimit:4;stroke-dasharray:none;stroke-dashoffset:26.45669365;stroke-opacity:1;paint-order:stroke fill markers"
         transform="scale(-1,1)" />
      <path
         style="opacity:0.995;fill:none;fill-opacity:1;stroke:#000000;stroke-width:0.26458333;stroke-linecap:round;stroke-linejoin:miter;stroke-miterlimit:4;stroke-dasharray:none;stroke-dashoffset:26.45669365;stroke-opacity:1;paint-order:stroke fill markers"
         d="m 11.355159,280.44365 c -0.237668,0 -0.429042,0.19149 -0.429042,0.42933 v 1.48771 c 0,0.23785 0.191374,0.42934 0.429042,0.42934 h 1.077563 c 0.01099,0 0.02181,-6.4e-4 0.03256,-0.002 v -2.34314 c -0.01067,-6.5e-4 -0.02151,-8e-4 -0.03256,-8e-4 z"
         id="path2324"
         inkscape:connector-curvature="0" />
      <path
         style="opacity:0.995;fill:none;fill-opacity:1;stroke:#000000;stroke-width:0.26458333;stroke-linecap:round;stroke-linejoin:miter;stroke-miterlimit:4;stroke-dasharray:none;stroke-dashoffset:26.45669365;stroke-opacity:1;paint-order:stroke fill markers"
         d="m 14.877183,283.24259 v 1.27798 h 0.809464 l 0.757466,2.02082 h -1.253944 c -0.17689,0 -0.319318,0.1621 -0.319318,0.36325 v 0.6352 h 3.113025 v -0.6352 c 0,-0.0544 -0.01115,-0.10549 -0.02982,-0.15159 -0.0043,-0.0251 -0.01052,-0.0506 -0.02003,-0.0755 l -1.16785,-3.11565 c -0.0043,-0.0112 -0.0088,-0.0208 -0.01354,-0.0309 v -0.28833 z"
         id="path2330"
         inkscape:connector-curvature="0" />
      <path
         style="opacity:0.995;fill:none;fill-opacity:1;stroke:#000000;stroke-width:0.26458333;stroke-linecap:round;stroke-linejoin:miter;stroke-miterlimit:4;stroke-dasharray:none;stroke-dashoffset:26.45669365;stroke-opacity:1;paint-order:stroke fill markers"
         d="m 14.870882,287.60365 v 0.55907 c 0,0.17699 0.142419,0.31953 0.319318,0.31953 h 2.474387 c 0.176887,0 0.319314,-0.14246 0.319314,-0.31953 v -0.55907 z"
         id="path2332"
         inkscape:connector-curvature="0" />
      <path
         style="opacity:0.995;fill:none;fill-opacity:1;stroke:#000000;stroke-width:0.26458333;stroke-linecap:round;stroke-linejoin:miter;stroke-miterlimit:4;stroke-dasharray:none;stroke-dashoffset:26.45669365;stroke-opacity:1;paint-order:stroke fill markers"
         d="m 10.720972,281.07858 -0.47784,0.0706 c -0.148378,0.0218 -0.2689959,0.14406 -0.2697718,0.32332 v 0 8e-4 0.17472 8e-4 0 c 0,0.17926 0.1214048,0.30176 0.2697718,0.3236 l 0.47784,0.0701 c 0.148856,0.0218 0.269953,-0.1447 0.269953,-0.32493 v -0.13942 -0.037 -0.1391 c 0,-0.18021 -0.121102,-0.34716 -0.269953,-0.32523 z"
         id="path2334"
         inkscape:connector-curvature="0" />
      <path
         inkscape:connector-curvature="0"
         id="path4246"
         d="M 10.016369,281.52656 H 6.4964656"
         style="fill:none;stroke:#000000;stroke-width:0.26458332px;stroke-linecap:butt;stroke-linejoin:miter;stroke-opacity:1" />
    </g>
  </g>
</svg>
