<?xml version="1.0" encoding="UTF-8" standalone="no"?>
<svg
   xmlns:dc="http://purl.org/dc/elements/1.1/"
   xmlns:cc="http://creativecommons.org/ns#"
   xmlns:rdf="http://www.w3.org/1999/02/22-rdf-syntax-ns#"
   xmlns:svg="http://www.w3.org/2000/svg"
   xmlns="http://www.w3.org/2000/svg"
   id="svg8"
   version="1.1"
   viewBox="0 0 26.458333 26.458334"
   height="100"
   width="100">
  <defs
     id="defs2" />
  <metadata
     id="metadata5">
    <rdf:RDF>
      <cc:Work
         rdf:about="">
        <dc:format>image/svg+xml</dc:format>
        <dc:type
           rdf:resource="http://purl.org/dc/dcmitype/StillImage" />
        <dc:title></dc:title>
      </cc:Work>
    </rdf:RDF>
  </metadata>
  <g
     transform="translate(0,-270.54163)"
     id="layer1">
    <g
       id="g4184">
      <circle
         style="opacity:0.9020004;fill:none;fill-opacity:1;stroke:#aa8031;stroke-width:0.26458332;stroke-linecap:round;stroke-linejoin:miter;stroke-miterlimit:4;stroke-dasharray:none;stroke-dashoffset:26.45669365;stroke-opacity:0.98039216;paint-order:stroke fill markers"
         id="path3388"
         cx="13.229167"
         cy="283.77078"
         r="10.961308" />
      <g
         id="drill"
         transform="matrix(1.5932355,0,0,1.6006974,-79.04484,-157.88163)"
         style="opacity:0.98000004;stroke-width:0.62618899">
        <g
           transform="translate(8.2853538,-1.0022592)"
           id="drill__fill"
           style="stroke-width:0.62618899">
          <rect
             style="opacity:1;fill:#c3c58b;fill-opacity:1;stroke:none;stroke-width:0.33135825;stroke-linecap:round;stroke-linejoin:miter;stroke-miterlimit:4;stroke-dasharray:none;stroke-dashoffset:26.45669365;stroke-opacity:1;paint-order:stroke fill markers"
             id="rect1278"
             width="1.7534841"
             height="1.9461099"
             x="50.214233"
             y="274.56174" />
          <path
             style="opacity:1;fill:#c3c58b;fill-opacity:1;stroke:none;stroke-width:0.33135825;stroke-linecap:round;stroke-linejoin:miter;stroke-miterlimit:4;stroke-dasharray:none;stroke-dashoffset:26.45669365;stroke-opacity:1;paint-order:stroke fill markers"
             d="m 51.967709,274.71086 v 1.67166 h 0.40937 c 0.18475,0 0.333511,-0.14816 0.333511,-0.33219 v -1.00728 c 0,-0.18403 -0.148761,-0.33219 -0.333511,-0.33219 z m 0.248276,0.18748 h 0.150522 c 0.04662,0 0.08418,0.0374 0.08418,0.0838 0,0.0464 -0.03757,0.0838 -0.08418,0.0838 h -0.150522 c -0.04662,0 -0.08418,-0.0374 -0.08418,-0.0838 0,-0.0464 0.03757,-0.0838 0.08418,-0.0838 z m 0,0.2823 h 0.150522 c 0.04662,0 0.08418,0.0374 0.08418,0.0837 0,0.0464 -0.03757,0.0838 -0.08418,0.0838 h -0.150522 c -0.04662,0 -0.08418,-0.0374 -0.08418,-0.0838 0,-0.0464 0.03757,-0.0837 0.08418,-0.0837 z m 0,0.2822 h 0.150522 c 0.04662,0 0.08418,0.0375 0.08418,0.0838 0,0.0464 -0.03757,0.0838 -0.08418,0.0838 h -0.150522 c -0.04662,0 -0.08418,-0.0374 -0.08418,-0.0838 0,-0.0464 0.03757,-0.0838 0.08418,-0.0838 z m 0,0.28232 h 0.150522 c 0.04662,0 0.08418,0.0375 0.08418,0.0838 0,0.0464 -0.03757,0.0837 -0.08418,0.0837 h -0.150522 c -0.04662,0 -0.08418,-0.0374 -0.08418,-0.0837 0,-0.0464 0.03757,-0.0838 0.08418,-0.0838 z m 0,0.2823 h 0.150522 c 0.04662,0 0.08418,0.0372 0.08418,0.0837 0,0.0464 -0.03757,0.0838 -0.08418,0.0838 h -0.150522 c -0.04662,0 -0.08418,-0.0375 -0.08418,-0.0838 0,-0.0464 0.03757,-0.0837 0.08418,-0.0837 z"
             id="rect1280" />
          <rect
             y="274.56174"
             x="-50.214233"
             height="1.9461099"
             width="0.53147554"
             id="rect1285"
             style="opacity:1;fill:#aa7f31;fill-opacity:1;stroke:none;stroke-width:0.33135825;stroke-linecap:round;stroke-linejoin:miter;stroke-miterlimit:4;stroke-dasharray:none;stroke-dashoffset:26.45669365;stroke-opacity:1;paint-order:stroke fill markers"
             transform="scale(-1,1)" />
          <path
             style="opacity:1;fill:#c3c58b;fill-opacity:1;stroke:none;stroke-width:0.33135825;stroke-linecap:round;stroke-linejoin:miter;stroke-miterlimit:4;stroke-dasharray:none;stroke-dashoffset:26.45669365;stroke-opacity:1;paint-order:stroke fill markers"
             d="m 48.454529,274.8362 c -0.149173,0 -0.26929,0.11963 -0.26929,0.26822 v 0.92941 c 0,0.14859 0.120117,0.26822 0.26929,0.26822 h 0.676336 c 0.0069,0 0.01369,-4.1e-4 0.02044,-0.001 v -1.46382 c -0.0067,-4e-4 -0.0135,-5.3e-4 -0.02044,-5.3e-4 z"
             id="rect1287" />
          <path
             style="opacity:1;fill:#ffff00;fill-opacity:1;stroke:none;stroke-width:0.33135825;stroke-linecap:round;stroke-linejoin:miter;stroke-miterlimit:4;stroke-dasharray:none;stroke-dashoffset:26.45669365;stroke-opacity:1;paint-order:stroke fill markers"
             d="m 49.517462,274.61921 c -0.149191,0 -0.269291,0.15421 -0.269291,0.34579 v 1.1983 c 0,0.19159 0.1201,0.34589 0.269291,0.34589 h 0.08147 v -1.88998 z"
             id="path1292" />
          <rect
             style="opacity:1;fill:#6c5353;fill-opacity:1;stroke:none;stroke-width:0.33135825;stroke-linecap:round;stroke-linejoin:miter;stroke-miterlimit:4;stroke-dasharray:none;stroke-dashoffset:26.45669365;stroke-opacity:1;paint-order:stroke fill markers"
             id="rect1305"
             width="2.082449"
             height="0.17642401"
             x="45.542667"
             y="275.43423"
             ry="0.088212006" />
          <path
             style="opacity:1;fill:#c3c58b;fill-opacity:1;stroke:none;stroke-width:0.33135825;stroke-linecap:round;stroke-linejoin:miter;stroke-miterlimit:4;stroke-dasharray:none;stroke-dashoffset:26.45669365;stroke-opacity:1;paint-order:stroke fill markers"
             d="m 50.66514,276.58478 v 0.79838 h 0.508063 l 0.475429,1.26247 h -0.787045 c -0.111026,0 -0.200421,0.10127 -0.200421,0.22693 v 0.39683 h 1.953899 v -0.39683 c 0,-0.034 -0.0069,-0.0659 -0.01875,-0.0948 -0.0025,-0.0157 -0.0066,-0.0315 -0.01256,-0.0472 l -0.733003,-1.94643 c -0.0025,-0.007 -0.0055,-0.013 -0.0084,-0.0193 v -0.18013 z"
             id="rect1307" />
          <path
             style="opacity:1;fill:#ffff00;fill-opacity:1;stroke:none;stroke-width:0.33135825;stroke-linecap:round;stroke-linejoin:miter;stroke-miterlimit:4;stroke-dasharray:none;stroke-dashoffset:26.45669365;stroke-opacity:1;paint-order:stroke fill markers"
             d="m 50.661184,279.30925 v 0.34926 c 0,0.11058 0.0894,0.19963 0.200422,0.19963 h 1.553057 c 0.111027,0 0.200421,-0.089 0.200421,-0.19963 v -0.34926 z"
             id="rect1309" />
          <path
             style="opacity:1;fill:#ffff00;fill-opacity:1;stroke:none;stroke-width:0.33135825;stroke-linecap:round;stroke-linejoin:miter;stroke-miterlimit:4;stroke-dasharray:none;stroke-dashoffset:26.45669365;stroke-opacity:1;paint-order:stroke fill markers"
             d="m 48.05648,275.23285 -0.299919,0.0441 c -0.09313,0.0136 -0.168836,0.09 -0.169323,0.20199 v 0 5.3e-4 0.10916 5.3e-4 0 c 0,0.112 0.0762,0.18852 0.169323,0.20216 l 0.299919,0.0439 c 0.09342,0.0136 0.169436,-0.0904 0.169436,-0.203 v -0.0871 -0.0231 -0.0869 c 0,-0.11257 -0.07601,-0.21687 -0.169436,-0.20318 z"
             id="rect1297" />
        </g>
        <g
           id="drill_lineart"
           style="stroke-width:0.62618899">
          <rect
             y="273.55948"
             x="58.499592"
             height="1.9461099"
             width="1.7534841"
             id="rect2318"
             style="opacity:1;fill:none;fill-opacity:1;stroke:#aa7f31;stroke-width:0.16567913;stroke-linecap:round;stroke-linejoin:miter;stroke-miterlimit:4;stroke-dasharray:none;stroke-dashoffset:26.45669365;stroke-opacity:1;paint-order:stroke fill markers" />
          <path
             id="path2320"
             d="m 60.253062,273.70861 v 1.67165 h 0.409371 c 0.184754,0 0.33351,-0.14816 0.33351,-0.33219 v -1.00727 c 0,-0.18404 -0.148756,-0.33219 -0.33351,-0.33219 z m 0.248278,0.18747 h 0.150521 c 0.04665,0 0.08418,0.0374 0.08418,0.0838 0,0.0464 -0.03755,0.0838 -0.08418,0.0838 H 60.50134 c -0.04665,0 -0.08418,-0.0374 -0.08418,-0.0838 0,-0.0464 0.03756,-0.0838 0.08418,-0.0838 z m 0,0.2823 h 0.150521 c 0.04665,0 0.08418,0.0374 0.08418,0.0838 0,0.0464 -0.03755,0.0838 -0.08418,0.0838 H 60.50134 c -0.04665,0 -0.08418,-0.0374 -0.08418,-0.0838 0,-0.0464 0.03756,-0.0838 0.08418,-0.0838 z m 0,0.2822 h 0.150521 c 0.04665,0 0.08418,0.0375 0.08418,0.0838 0,0.0464 -0.03755,0.0838 -0.08418,0.0838 H 60.50134 c -0.04665,0 -0.08418,-0.0374 -0.08418,-0.0838 0,-0.0464 0.03756,-0.0838 0.08418,-0.0838 z m 0,0.28232 h 0.150521 c 0.04665,0 0.08418,0.0375 0.08418,0.0838 0,0.0464 -0.03755,0.0837 -0.08418,0.0837 H 60.50134 c -0.04665,0 -0.08418,-0.0374 -0.08418,-0.0837 0,-0.0464 0.03756,-0.0838 0.08418,-0.0838 z m 0,0.28231 h 0.150521 c 0.04665,0 0.08418,0.0373 0.08418,0.0837 0,0.0464 -0.03755,0.0838 -0.08418,0.0838 H 60.50134 c -0.04665,0 -0.08418,-0.0375 -0.08418,-0.0838 0,-0.0464 0.03756,-0.0837 0.08418,-0.0837 z"
             style="opacity:1;fill:none;fill-opacity:1;stroke:#aa7f31;stroke-width:0.16567913;stroke-linecap:round;stroke-linejoin:miter;stroke-miterlimit:4;stroke-dasharray:none;stroke-dashoffset:26.45669365;stroke-opacity:1;paint-order:stroke fill markers" />
          <rect
             transform="scale(-1,1)"
             style="opacity:1;fill:none;fill-opacity:1;stroke:#aa7f31;stroke-width:0.16567913;stroke-linecap:round;stroke-linejoin:miter;stroke-miterlimit:4;stroke-dasharray:none;stroke-dashoffset:26.45669365;stroke-opacity:1;paint-order:stroke fill markers"
             id="rect2322"
             width="0.53147554"
             height="1.9461099"
             x="-58.499592"
             y="273.55948" />
          <path
             id="path2324"
             d="m 56.739885,273.83394 c -0.149173,0 -0.26929,0.11963 -0.26929,0.26822 v 0.92941 c 0,0.14859 0.120117,0.26822 0.26929,0.26822 h 0.676336 c 0.0069,0 0.01369,-4e-4 0.02044,-10e-4 v -1.46382 c -0.0067,-4.1e-4 -0.0135,-5e-4 -0.02044,-5e-4 z"
             style="opacity:1;fill:none;fill-opacity:1;stroke:#aa7f31;stroke-width:0.16567913;stroke-linecap:round;stroke-linejoin:miter;stroke-miterlimit:4;stroke-dasharray:none;stroke-dashoffset:26.45669365;stroke-opacity:1;paint-order:stroke fill markers" />
          <path
             id="path2326"
             d="m 57.802817,273.61695 c -0.14919,0 -0.26929,0.15421 -0.26929,0.34579 v 1.1983 c 0,0.19159 0.1201,0.34589 0.26929,0.34589 h 0.08147 v -1.88998 z"
             style="opacity:1;fill:none;fill-opacity:1;stroke:#aa7f31;stroke-width:0.16567913;stroke-linecap:round;stroke-linejoin:miter;stroke-miterlimit:4;stroke-dasharray:none;stroke-dashoffset:26.45669365;stroke-opacity:1;paint-order:stroke fill markers" />
          <rect
             ry="0.088212013"
             y="274.43198"
             x="53.828022"
             height="0.17642403"
             width="2.082449"
             id="rect2328"
             style="opacity:1;fill:none;fill-opacity:1;stroke:#aa7f31;stroke-width:0.16567913;stroke-linecap:round;stroke-linejoin:miter;stroke-miterlimit:4;stroke-dasharray:none;stroke-dashoffset:26.45669365;stroke-opacity:1;paint-order:stroke fill markers" />
          <path
             id="path2330"
             d="m 58.950496,275.58252 v 0.79839 h 0.508063 l 0.475426,1.26246 h -0.787042 c -0.111026,0 -0.200421,0.10127 -0.200421,0.22693 v 0.39683 h 1.953901 v -0.39683 c 0,-0.034 -0.007,-0.0659 -0.01872,-0.0947 -0.0027,-0.0157 -0.0066,-0.0316 -0.01257,-0.0472 l -0.733005,-1.94643 c -0.0027,-0.007 -0.0055,-0.013 -0.0085,-0.0193 v -0.18013 z"
             style="opacity:1;fill:none;fill-opacity:1;stroke:#aa7f31;stroke-width:0.16567913;stroke-linecap:round;stroke-linejoin:miter;stroke-miterlimit:4;stroke-dasharray:none;stroke-dashoffset:26.45669365;stroke-opacity:1;paint-order:stroke fill markers" />
          <path
             id="path2332"
             d="m 58.946541,278.30699 v 0.34927 c 0,0.11057 0.08939,0.19962 0.200421,0.19962 h 1.553058 c 0.111024,0 0.200419,-0.089 0.200419,-0.19962 v -0.34927 z"
             style="opacity:1;fill:none;fill-opacity:1;stroke:#aa7f31;stroke-width:0.16567913;stroke-linecap:round;stroke-linejoin:miter;stroke-miterlimit:4;stroke-dasharray:none;stroke-dashoffset:26.45669365;stroke-opacity:1;paint-order:stroke fill markers" />
          <path
             id="path2334"
             d="m 56.341835,274.2306 -0.299918,0.0441 c -0.09313,0.0136 -0.168836,0.09 -0.169323,0.20199 v 0 5e-4 0.10915 5e-4 0 c 0,0.11199 0.0762,0.18852 0.169323,0.20216 l 0.299918,0.0438 c 0.09343,0.0136 0.169437,-0.0904 0.169437,-0.20299 v -0.0871 -0.0231 -0.0869 c 0,-0.11258 -0.07601,-0.21688 -0.169437,-0.20318 z"
             style="opacity:1;fill:none;fill-opacity:1;stroke:#aa7f31;stroke-width:0.16567913;stroke-linecap:round;stroke-linejoin:miter;stroke-miterlimit:4;stroke-dasharray:none;stroke-dashoffset:26.45669365;stroke-opacity:1;paint-order:stroke fill markers" />
        </g>
      </g>
    </g>
  </g>
</svg>
