<?xml version="1.0" encoding="UTF-8" standalone="no"?>
<svg
   xmlns:dc="http://purl.org/dc/elements/1.1/"
   xmlns:cc="http://creativecommons.org/ns#"
   xmlns:rdf="http://www.w3.org/1999/02/22-rdf-syntax-ns#"
   xmlns:svg="http://www.w3.org/2000/svg"
   xmlns="http://www.w3.org/2000/svg"
   id="svg8"
   version="1.1"
   viewBox="0 0 26.458333 26.458334"
   height="100"
   width="100">
  <defs
     id="defs2" />
  <metadata
     id="metadata5">
    <rdf:RDF>
      <cc:Work
         rdf:about="">
        <dc:format>image/svg+xml</dc:format>
        <dc:type
           rdf:resource="http://purl.org/dc/dcmitype/StillImage" />
        <dc:title></dc:title>
      </cc:Work>
    </rdf:RDF>
  </metadata>
  <g
     transform="translate(0,-270.54163)"
     id="layer1">
    <g
       id="g3793">
      <circle
         style="opacity:0.9020004;fill:none;fill-opacity:1;stroke:#aa7f31;stroke-width:0.26458332;stroke-linecap:round;stroke-linejoin:miter;stroke-miterlimit:4;stroke-dasharray:none;stroke-dashoffset:26.45669365;stroke-opacity:1;paint-order:stroke fill markers"
         id="path3388"
         cx="13.229167"
         cy="283.77078"
         r="10.961308" />
      <g
         id="enginneer_full"
         transform="matrix(1.2767494,0,0,1.2744706,-0.98067099,-48.985484)"
         style="stroke-width:0.78393894">
        <g
           transform="matrix(0.5031484,0,0,0.50094576,-54.577652,148.00195)"
           id="g2716"
           style="stroke-width:1.56148875">
          <path
             style="opacity:1;fill:#c3c58b;fill-opacity:1;stroke:none;stroke-width:0.82628775;stroke-linecap:round;stroke-linejoin:miter;stroke-miterlimit:4;stroke-dasharray:none;stroke-dashoffset:26.45669365;stroke-opacity:1;paint-order:stroke fill markers"
             d="m 127.56518,222.18582 c -0.0345,0.19835 -0.0552,0.40245 -0.0552,0.61161 0,1.82246 1.38006,4.01436 3.08221,4.01436 1.70222,0 3.08222,-2.1919 3.08222,-4.01436 0,-0.20916 -0.0201,-0.41326 -0.0552,-0.61161 z m 1.87615,2.79568 h 2.3023 a 1.1525477,0.81982591 0 0 1 0,0.0211 1.1525477,0.81982591 0 0 1 -1.15262,0.81971 1.1525477,0.81982591 0 0 1 -1.15231,-0.81971 1.1525477,0.81982591 0 0 1 0,-0.0211 z"
             id="path2683" />
          <path
             style="opacity:1;fill:#c3c58b;fill-opacity:1;stroke:none;stroke-width:0.82628775;stroke-linecap:round;stroke-linejoin:miter;stroke-miterlimit:4;stroke-dasharray:none;stroke-dashoffset:26.45669365;stroke-opacity:1;paint-order:stroke fill markers"
             d="m 127.10755,222.18582 a 0.71248401,0.91442121 0 0 0 -0.22236,0.66201 0.71248401,0.91442121 0 0 0 0.71248,0.91466 0.71248401,0.91442121 0 0 0 0.0746,-0.006 c -0.0761,-0.32188 -0.11961,-0.64584 -0.11961,-0.95888 0,-0.20916 0.0201,-0.41326 0.0552,-0.61162 z m 6.46952,0 c 0.0345,0.19835 0.0552,0.40245 0.0552,0.61161 0,0.31305 -0.0433,0.63701 -0.11962,0.95888 a 0.71248401,0.91442121 0 0 0 0.0745,0.006 0.71248401,0.91442121 0 0 0 0.71248,-0.91466 0.71248401,0.91442121 0 0 0 -0.22235,-0.66202 z"
             id="path2685" />
          <path
             style="opacity:1;fill:#aa7f31;fill-opacity:1;stroke:none;stroke-width:0.82628775;stroke-linecap:round;stroke-linejoin:miter;stroke-miterlimit:4;stroke-dasharray:none;stroke-dashoffset:26.45669365;stroke-opacity:1;paint-order:stroke fill markers"
             d="m 128.77721,226.97307 -1.13186,0.78752 1.80771,1.83323 1.01325,-0.93613 z m 3.63068,0 -1.68911,1.68462 1.01331,0.93613 1.80734,-1.83323 z"
             id="path2687" />
          <path
             style="opacity:1;fill:#c3c58b;fill-opacity:1;stroke:none;stroke-width:0.82628775;stroke-linecap:round;stroke-linejoin:miter;stroke-miterlimit:4;stroke-dasharray:none;stroke-dashoffset:26.45669365;stroke-opacity:1;paint-order:stroke fill markers"
             d="m 128.89488,226.04605 v 1.0444 l 1.57143,1.56724 -0.0257,0.0237 h 0.30371 l -0.0257,-0.0237 1.57106,-1.56691 v -1.04473 c -0.48693,0.46735 -1.07008,0.76574 -1.69751,0.76574 -0.62743,0 -1.21058,-0.29839 -1.69751,-0.76574 z"
             id="path2689" />
          <path
             style="opacity:1;fill:#aa7f31;fill-opacity:1;stroke:none;stroke-width:0.82628775;stroke-linecap:round;stroke-linejoin:miter;stroke-miterlimit:4;stroke-dasharray:none;stroke-dashoffset:26.45669365;stroke-opacity:1;paint-order:stroke fill markers"
             d="m 127.56562,227.83148 -3.19637,1.87517 c -0.46335,0.27183 -0.96884,0.49225 -0.96884,1.10357 v 4.44454 h 5.97419 l 0.4671,-3.90446 v -1.11496 z m 6.0536,0 -2.27614,2.40386 v 1.11496 l 0.4671,3.90446 h 5.97419 v -4.44454 c 0,-0.61132 -0.50556,-0.83174 -0.96884,-1.10357 z"
             id="path2691" />
          <path
             id="path2693"
             d="m 130.59226,216.25829 v 3.95388"
             style="opacity:1;fill:#ff0000;stroke:none;stroke-width:0.82628775;stroke-linecap:butt;stroke-linejoin:miter;stroke-miterlimit:4;stroke-dasharray:none;stroke-opacity:1" />
          <g
             style="opacity:1;fill:#ff0000;stroke:none;stroke-width:1.31526756;stroke-miterlimit:4;stroke-dasharray:none"
             transform="matrix(0.62724433,0,0,0.62921286,-7.9088075,174.07037)"
             id="g2699">
            <path
               id="path2695"
               d="m 218.56473,67.804668 v 3.874256"
               style="fill:#ff0000;stroke:none;stroke-width:1.31526756;stroke-linecap:butt;stroke-linejoin:miter;stroke-miterlimit:4;stroke-dasharray:none;stroke-opacity:1" />
            <path
               style="fill:#ff0000;stroke:none;stroke-width:1.31526756;stroke-linecap:butt;stroke-linejoin:miter;stroke-miterlimit:4;stroke-dasharray:none;stroke-opacity:1"
               d="m 223.0532,67.804668 v 3.874256"
               id="path2697" />
          </g>
          <path
             style="opacity:1;fill:#ffff00;fill-opacity:1;stroke:none;stroke-width:0.82628775;stroke-linecap:round;stroke-linejoin:miter;stroke-miterlimit:4;stroke-dasharray:none;stroke-dashoffset:26.45669365;stroke-opacity:1;paint-order:stroke fill markers"
             d="m 130.59239,216.27361 a 3.235259,3.8314861 0 0 0 -3.23533,3.83154 3.235259,3.8314861 0 0 0 0.13398,1.08204 h 6.20307 a 3.235259,3.8314861 0 0 0 0.13361,-1.08204 3.235259,3.8314861 0 0 0 -3.23533,-3.83154 z"
             id="path2701" />
          <path
             style="opacity:1;fill:#ffff00;fill-opacity:1;stroke:none;stroke-width:0.82628775;stroke-linecap:round;stroke-linejoin:miter;stroke-miterlimit:4;stroke-dasharray:none;stroke-dashoffset:26.45669365;stroke-opacity:1;paint-order:stroke fill markers"
             d="m 127.45529,221.18728 -1.08664,0.91773 h 4.18272 0.082 4.18272 l -1.08664,-0.91773 h -3.09608 -0.082 z"
             id="path2703" />
        </g>
        <g
           id="engineer__line__art"
           style="stroke-width:0.78393894">
          <path
             id="path1632"
             d="m 9.6065643,259.30115 c -0.017359,0.0994 -0.027774,0.20161 -0.027774,0.30639 0,0.91295 0.6943757,2.01097 1.5508097,2.01097 0.856469,0 1.550814,-1.09802 1.550814,-2.01097 0,-0.10478 -0.01011,-0.20702 -0.02777,-0.30639 z m 0.9439817,1.40049 h 1.158399 a 0.57990253,0.41068831 0 0 1 0,0.0106 0.57990253,0.41068831 0 0 1 -0.579939,0.41063 0.57990253,0.41068831 0 0 1 -0.579783,-0.41063 0.57990253,0.41068831 0 0 1 0,-0.0106 z"
             style="opacity:1;fill:none;fill-opacity:1;stroke:#aa7f31;stroke-width:0.20741718;stroke-linecap:round;stroke-linejoin:miter;stroke-miterlimit:4;stroke-dasharray:none;stroke-dashoffset:26.45669365;stroke-opacity:1;paint-order:stroke fill markers" />
          <path
             id="path1634"
             d="m 9.3763085,259.30115 a 0.35848519,0.45807543 0 0 0 -0.11188,0.33163 0.35848519,0.45807543 0 0 0 0.3584831,0.4582 0.35848519,0.45807543 0 0 0 0.037535,-0.003 c -0.03829,-0.16124 -0.060182,-0.32353 -0.060182,-0.48034 0,-0.10478 0.010113,-0.20702 0.027774,-0.30639 z m 3.2551285,0 c 0.01736,0.0994 0.02777,0.20161 0.02777,0.30639 0,0.15682 -0.02179,0.3191 -0.06019,0.48034 a 0.35848519,0.45807543 0 0 0 0.03749,0.003 0.35848519,0.45807543 0 0 0 0.358483,-0.4582 0.35848519,0.45807543 0 0 0 -0.111875,-0.33163 z"
             style="opacity:1;fill:none;fill-opacity:1;stroke:#aa7f31;stroke-width:0.20741718;stroke-linecap:round;stroke-linejoin:miter;stroke-miterlimit:4;stroke-dasharray:none;stroke-dashoffset:26.45669365;stroke-opacity:1;paint-order:stroke fill markers" />
          <path
             id="path1636"
             d="m 10.216395,261.69931 -0.5694933,0.3945 0.9095463,0.91835 0.509815,-0.46895 z m 1.826771,0 -0.849873,0.8439 0.509845,0.46895 0.909361,-0.91835 z"
             style="opacity:1;fill:none;fill-opacity:1;stroke:#aa7f31;stroke-width:0.20741718;stroke-linecap:round;stroke-linejoin:miter;stroke-miterlimit:4;stroke-dasharray:none;stroke-dashoffset:26.45669365;stroke-opacity:1;paint-order:stroke fill markers" />
          <path
             id="path1638"
             d="m 10.275601,261.23492 v 0.52319 l 0.790662,0.7851 -0.01293,0.0119 h 0.152812 l -0.01293,-0.0119 0.790476,-0.78494 v -0.52335 c -0.244998,0.23412 -0.538409,0.38359 -0.854099,0.38359 -0.315691,0 -0.609102,-0.14947 -0.8541,-0.38359 z"
             style="opacity:1;fill:none;fill-opacity:1;stroke:#aa7f31;stroke-width:0.20741718;stroke-linecap:round;stroke-linejoin:miter;stroke-miterlimit:4;stroke-dasharray:none;stroke-dashoffset:26.45669365;stroke-opacity:1;paint-order:stroke fill markers" />
          <path
             id="path1640"
             d="m 9.6067857,262.12932 -1.6082484,0.93936 c -0.2331338,0.13617 -0.4874703,0.24659 -0.4874703,0.55283 v 2.22647 h 3.005904 l 0.235021,-1.95592 v -0.55853 z m 3.0458593,0 -1.145236,1.20421 v 0.55853 l 0.23502,1.95592 h 3.005904 v -2.22647 c 0,-0.30624 -0.254371,-0.41666 -0.48747,-0.55283 z"
             style="opacity:1;fill:none;fill-opacity:1;stroke:#aa7f31;stroke-width:0.20741718;stroke-linecap:round;stroke-linejoin:miter;stroke-miterlimit:4;stroke-dasharray:none;stroke-dashoffset:26.45669365;stroke-opacity:1;paint-order:stroke fill markers" />
          <path
             style="opacity:1;fill:none;fill-opacity:1;stroke:#aa7f31;stroke-width:0.20741718;stroke-linecap:butt;stroke-linejoin:miter;stroke-miterlimit:4;stroke-dasharray:none;stroke-opacity:1"
             d="m 11.129635,256.33178 v 1.98068"
             id="path1646" />
          <path
             id="path1648"
             d="m 10.421416,256.57005 v 1.22118"
             style="opacity:1;fill:none;fill-opacity:1;stroke:#aa7f31;stroke-width:0.20741718;stroke-linecap:butt;stroke-linejoin:miter;stroke-miterlimit:4;stroke-dasharray:none;stroke-opacity:1" />
          <path
             style="opacity:1;fill:none;fill-opacity:1;stroke:#aa7f31;stroke-width:0.20741718;stroke-linecap:butt;stroke-linejoin:miter;stroke-miterlimit:4;stroke-dasharray:none;stroke-opacity:1"
             d="m 11.837963,256.57005 v 1.22118"
             id="path1650" />
          <path
             id="path1642"
             d="m 11.1297,256.33946 a 1.6278154,1.9193667 0 0 0 -1.6278509,1.91939 1.6278154,1.9193667 0 0 0 0.067412,0.54204 h 3.1210649 a 1.6278154,1.9193667 0 0 0 0.06722,-0.54204 1.6278154,1.9193667 0 0 0 -1.627851,-1.91939 z"
             style="opacity:1;fill:none;fill-opacity:1;stroke:#aa7f31;stroke-width:0.20741718;stroke-linecap:round;stroke-linejoin:miter;stroke-miterlimit:4;stroke-dasharray:none;stroke-dashoffset:26.45669365;stroke-opacity:1;paint-order:stroke fill markers" />
          <path
             id="path1644"
             d="m 9.5512734,258.80094 -0.5467412,0.45973 h 2.1045288 0.04126 2.104529 l -0.546741,-0.45973 h -1.557788 -0.04126 z"
             style="opacity:1;fill:none;fill-opacity:1;stroke:#aa7f31;stroke-width:0.20741718;stroke-linecap:round;stroke-linejoin:miter;stroke-miterlimit:4;stroke-dasharray:none;stroke-dashoffset:26.45669365;stroke-opacity:1;paint-order:stroke fill markers" />
        </g>
      </g>
    </g>
  </g>
</svg>
