<?xml version="1.0" encoding="UTF-8" standalone="no"?>
<svg
   xmlns:dc="http://purl.org/dc/elements/1.1/"
   xmlns:cc="http://creativecommons.org/ns#"
   xmlns:rdf="http://www.w3.org/1999/02/22-rdf-syntax-ns#"
   xmlns:svg="http://www.w3.org/2000/svg"
   xmlns="http://www.w3.org/2000/svg"
   id="svg8"
   version="1.1"
   viewBox="0 0 26.458333 26.458334"
   height="100"
   width="100">
  <defs
     id="defs2" />
  <metadata
     id="metadata5">
    <rdf:RDF>
      <cc:Work
         rdf:about="">
        <dc:format>image/svg+xml</dc:format>
        <dc:type
           rdf:resource="http://purl.org/dc/dcmitype/StillImage" />
        <dc:title></dc:title>
      </cc:Work>
    </rdf:RDF>
  </metadata>
  <g
     transform="translate(0,-270.54163)"
     id="layer1">
    <g
       id="g4866">
      <circle
         style="opacity:0.99900004;fill:none;fill-opacity:1;stroke:#000000;stroke-width:0.26458332;stroke-linecap:round;stroke-linejoin:miter;stroke-miterlimit:4;stroke-dasharray:none;stroke-dashoffset:26.45669365;stroke-opacity:1;paint-order:stroke fill markers"
         id="path3388"
         cx="13.229167"
         cy="283.77078"
         r="10.961308" />
      <path
         style="opacity:1;fill:none;fill-opacity:1;stroke:#000000;stroke-width:0.52916676;stroke-linecap:round;stroke-linejoin:miter;stroke-miterlimit:4;stroke-dasharray:none;stroke-dashoffset:26.45669365;stroke-opacity:1;paint-order:stroke fill markers"
         d="m 10.70216,278.78443 c -0.301199,0 -0.543789,0.34173 -0.543789,0.76639 v 0.0812 a 0.77465341,1.092125 0 0 1 0.663939,1.07948 0.77465341,1.092125 0 0 1 -0.663939,1.07979 v 0.004 h -0.02254 a 0.77465341,1.092125 0 0 1 -0.08811,0.008 0.77465341,1.092125 0 0 1 -0.09167,-0.008 H 9.4736681 c -0.3116577,0 -0.5627762,0.35356 -0.5627762,0.79294 v 5.37592 c 0,0.43938 0.2511185,0.79294 0.5627762,0.79294 h 1.2284949 1.106269 1.127035 c 0.108643,0 0.208965,-0.0457 0.293699,-0.12246 0.08477,0.0769 0.18529,0.12246 0.293997,0.12246 h 1.126738 1.106566 1.228198 c 0.311657,0 0.562776,-0.35356 0.562776,-0.79294 v -5.37592 c -10e-7,-0.43938 -0.251119,-0.79294 -0.562776,-0.79294 h -0.482379 a 0.77465341,1.092125 0 0 1 -0.09137,0.008 0.77465341,1.092125 0 0 1 -0.08841,-0.008 h -0.02254 v -0.004 a 0.77465341,1.092125 0 0 1 -0.663643,-1.07979 0.77465341,1.092125 0 0 1 0.663643,-1.07948 v -0.0812 c 0,-0.42466 -0.242586,-0.76639 -0.543789,-0.76639 h -1.653914 l -0.873089,3.25618 -0.872793,-3.25618 z"
         id="path996" />
      <path
         style="opacity:1;fill:none;fill-opacity:1;stroke:#000000;stroke-width:0.52916664;stroke-linecap:round;stroke-linejoin:miter;stroke-miterlimit:4;stroke-dasharray:none;stroke-dashoffset:26.45669365;stroke-opacity:1;paint-order:stroke fill markers"
         d="m 11.101473,278.78443 v 5.74302 H 8.911186 v 0.94788 h 2.190287 v 3.28185 h 0.706956 0.246233 v -3.28185 h 0.924709 0.499883 0.924411 v 3.28185 h 0.246234 0.706955 v -3.28185 h 2.190585 v -0.94788 h -2.190585 v -5.74302 h -0.953189 v 5.74302 h -0.924411 -0.499883 -0.924709 v -5.74302 z"
         id="path998" />
      <path
         id="path2436"
         d="m 10.702151,278.78443 c -0.3012,0 -0.543789,0.34174 -0.543789,0.76638 v 0.0811 a 0.77465342,1.092125 0 0 1 0.663939,1.07949 0.77465342,1.092125 0 0 1 -0.663939,1.07978 v 0.004 h -0.02254 a 0.77465342,1.092125 0 0 1 -0.0881,0.008 0.77465342,1.092125 0 0 1 -0.091672,-0.008 H 9.473669 c -0.3116577,0 -0.5627765,0.35356 -0.5627765,0.79294 v 5.37592 c 0,0.43938 0.2511188,0.79294 0.5627765,0.79294 h 1.228494 1.106269 1.127034 c 0.108651,0 0.208966,-0.0456 0.293701,-0.12242 0.08477,0.0769 0.18529,0.12242 0.293997,0.12242 h 1.126738 1.106564 1.228198 c 0.311659,0 0.562776,-0.35356 0.562776,-0.79294 v -5.37592 c -1e-6,-0.43938 -0.251117,-0.79294 -0.562776,-0.79294 h -0.482378 a 0.77465342,1.092125 0 0 1 -0.09137,0.008 0.77465342,1.092125 0 0 1 -0.0884,-0.008 h -0.02254 v -0.004 a 0.77465342,1.092125 0 0 1 -0.663643,-1.07978 0.77465342,1.092125 0 0 1 0.663643,-1.07949 v -0.0811 c 0,-0.42464 -0.242586,-0.76638 -0.543788,-0.76638 H 14.10225 l -0.873089,3.25618 -0.872792,-3.25618 z"
         style="opacity:1;fill:none;fill-opacity:1;stroke:#000000;stroke-width:0.26458332;stroke-linecap:round;stroke-linejoin:miter;stroke-miterlimit:4;stroke-dasharray:none;stroke-dashoffset:26.45669365;stroke-opacity:1;paint-order:stroke fill markers" />
      <path
         id="path2438"
         d="m 11.101464,278.78443 v 5.74303 H 8.9111773 v 0.94786 h 2.1902867 v 3.28186 h 0.706956 0.246233 v -3.28186 h 0.924709 0.499883 0.924412 v 3.28186 h 0.246233 0.706954 v -3.28186 h 2.190584 v -0.94786 h -2.190584 v -5.74303 h -0.953187 v 5.74303 h -0.924412 -0.499883 -0.924709 v -5.74303 z"
         style="opacity:1;fill:none;fill-opacity:1;stroke:#000000;stroke-width:0.26458332;stroke-linecap:round;stroke-linejoin:miter;stroke-miterlimit:4;stroke-dasharray:none;stroke-dashoffset:26.45669365;stroke-opacity:1;paint-order:stroke fill markers" />
    </g>
  </g>
</svg>
