<?xml version="1.0" encoding="UTF-8" standalone="no"?>
<svg
   xmlns:dc="http://purl.org/dc/elements/1.1/"
   xmlns:cc="http://creativecommons.org/ns#"
   xmlns:rdf="http://www.w3.org/1999/02/22-rdf-syntax-ns#"
   xmlns:svg="http://www.w3.org/2000/svg"
   xmlns="http://www.w3.org/2000/svg"
   id="svg8"
   version="1.1"
   viewBox="0 0 26.458333 26.458334"
   height="100"
   width="100">
  <defs
     id="defs2" />
  <metadata
     id="metadata5">
    <rdf:RDF>
      <cc:Work
         rdf:about="">
        <dc:format>image/svg+xml</dc:format>
        <dc:type
           rdf:resource="http://purl.org/dc/dcmitype/StillImage" />
        <dc:title></dc:title>
      </cc:Work>
    </rdf:RDF>
  </metadata>
  <g
     transform="translate(0,-270.54163)"
     id="layer1">
    <g
       id="g5421">
      <circle
         style="opacity:0.99900004;fill:none;fill-opacity:1;stroke:#000000;stroke-width:0.26458332;stroke-linecap:round;stroke-linejoin:miter;stroke-miterlimit:4;stroke-dasharray:none;stroke-dashoffset:26.45669365;stroke-opacity:1;paint-order:stroke fill markers"
         id="path3388"
         cx="13.229167"
         cy="283.77078"
         r="10.961308" />
      <path
         style="opacity:1;fill:none;fill-opacity:1;stroke:#000000;stroke-width:0.26458338;stroke-linecap:round;stroke-linejoin:miter;stroke-miterlimit:4;stroke-dasharray:none;stroke-dashoffset:26.45669365;stroke-opacity:1;paint-order:stroke fill markers"
         d="m 15.158057,281.15983 c -0.04672,-0.004 -0.0926,-0.004 -0.138051,6.6e-4 -0.636532,0.0577 -1.133684,0.87062 -1.133684,1.66692 v 1.18911 0.14913 1.18913 c 0,0.79628 0.497152,1.60919 1.133684,1.66689 0.09094,0.009 0.184561,0.001 0.280126,-0.0239 l 4.45225,-1.15584 c 0.764566,-0.19851 1.41381,-0.73293 1.41381,-1.64295 v -0.0335 -0.14913 -0.0333 c 0,-0.91002 -0.649244,-1.44444 -1.41381,-1.64297 l -4.45225,-1.15583 c -0.04779,-0.015 -0.09535,-0.0207 -0.142088,-0.0246 z"
         id="rect1057" />
      <rect
         style="opacity:1;fill:none;fill-opacity:1;stroke:#000000;stroke-width:0.26458335;stroke-linecap:round;stroke-linejoin:miter;stroke-miterlimit:4;stroke-dasharray:none;stroke-dashoffset:26.45669365;stroke-opacity:1;paint-order:stroke fill markers"
         id="rect1066"
         width="5.3202591"
         height="1.7101029"
         x="5.2921424"
         y="280.5162"
         ry="0.28693485" />
      <path
         style="fill:none;stroke:#000000;stroke-width:0.26458335px;stroke-linecap:butt;stroke-linejoin:miter;stroke-opacity:1"
         d="m 10.556273,281.40432 h 1.480409 v 2.65382 h 3.309153"
         id="path1068" />
      <path
         id="path1074"
         d="m 15.158057,281.15983 c -0.04672,-0.004 -0.0926,-0.004 -0.138051,6.6e-4 -0.636532,0.0577 -1.133684,0.87062 -1.133684,1.66692 v 1.18911 0.14913 1.18913 c 0,0.79628 0.497152,1.60919 1.133684,1.66689 0.09094,0.009 0.184561,0.001 0.280126,-0.0239 l 4.45225,-1.15584 c 0.764566,-0.19851 1.41381,-0.73293 1.41381,-1.64295 v -0.0335 -0.14913 -0.0333 c 0,-0.91002 -0.649244,-1.44444 -1.41381,-1.64297 l -4.45225,-1.15583 c -0.04779,-0.015 -0.09535,-0.0207 -0.142088,-0.0246 z"
         style="opacity:1;fill:none;fill-opacity:1;stroke:#000000;stroke-width:0.26458338;stroke-linecap:round;stroke-linejoin:miter;stroke-miterlimit:4;stroke-dasharray:none;stroke-dashoffset:26.45669365;stroke-opacity:1;paint-order:stroke fill markers" />
      <rect
         ry="0.28693485"
         y="280.5162"
         x="5.2921424"
         height="1.7101029"
         width="5.3202591"
         id="rect1076"
         style="opacity:1;fill:none;fill-opacity:1;stroke:#000000;stroke-width:0.26458335;stroke-linecap:round;stroke-linejoin:miter;stroke-miterlimit:4;stroke-dasharray:none;stroke-dashoffset:26.45669365;stroke-opacity:1;paint-order:stroke fill markers" />
    </g>
  </g>
</svg>
