<?xml version="1.0" encoding="UTF-8" standalone="no"?>
<svg
   xmlns:dc="http://purl.org/dc/elements/1.1/"
   xmlns:cc="http://creativecommons.org/ns#"
   xmlns:rdf="http://www.w3.org/1999/02/22-rdf-syntax-ns#"
   xmlns:svg="http://www.w3.org/2000/svg"
   xmlns="http://www.w3.org/2000/svg"
   id="svg8"
   version="1.1"
   viewBox="0 0 26.458333 26.458334"
   height="100"
   width="100">
  <defs
     id="defs2" />
  <metadata
     id="metadata5">
    <rdf:RDF>
      <cc:Work
         rdf:about="">
        <dc:format>image/svg+xml</dc:format>
        <dc:type
           rdf:resource="http://purl.org/dc/dcmitype/StillImage" />
        <dc:title></dc:title>
      </cc:Work>
    </rdf:RDF>
  </metadata>
  <g
     transform="translate(0,-270.54163)"
     id="layer1">
    <g
       id="g5301">
      <circle
         style="opacity:0.99900004;fill:none;fill-opacity:1;stroke:#aa7f31;stroke-width:0.26458332;stroke-linecap:round;stroke-linejoin:miter;stroke-miterlimit:4;stroke-dasharray:none;stroke-dashoffset:26.45669365;stroke-opacity:1;paint-order:stroke fill markers"
         id="path3388"
         cx="13.229167"
         cy="283.77078"
         r="10.961308" />
      <g
         id="small__plan"
         transform="matrix(1.5426968,0,0,1.5449562,2.5548447,-135.55868)"
         style="stroke-width:0.64774138">
        <g
           transform="matrix(0.43683642,0,0,0.4007584,-49.309357,181.32603)"
           id="plan_-fill"
           style="stroke-width:1.54810667">
          <path
             style="opacity:1;fill:#c3c58b;fill-opacity:1;stroke:none;stroke-width:0.81920642;stroke-linecap:round;stroke-linejoin:miter;stroke-miterlimit:4;stroke-dasharray:none;stroke-dashoffset:26.45669365;stroke-opacity:1;paint-order:stroke fill markers"
             d="m 122.44308,216.05395 v 17.50134 h 12.47013 0.0484 v -0.002 c 1.52891,-0.0266 2.75466,-1.27435 2.7336,-2.28288 0,-0.1631 -0.021,-15.21672 -0.021,-15.21672 z"
             id="rect1078" />
          <path
             style="opacity:1;fill:#ffff00;fill-opacity:1;stroke:none;stroke-width:0.81920642;stroke-linecap:round;stroke-linejoin:miter;stroke-miterlimit:4;stroke-dasharray:none;stroke-dashoffset:26.45669365;stroke-opacity:1;paint-order:stroke fill markers"
             d="m 119.74969,230.34237 c -0.15133,1.68312 1.52164,3.1426 2.69338,3.21013 v 0.003 h 0.0777 12.39241 c -2.13027,-0.005 -2.99993,-1.7058 -2.77112,-3.21292 -4.13079,0 -8.26159,-5e-5 -12.39239,9e-5 z m 15.16352,3.21292 h 0.0484 v -0.002 c -0.0162,6.8e-4 -0.0325,0.001 -0.0488,0.002 z"
             id="path1080" />
        </g>
        <g
           transform="matrix(0.43683642,0,0,0.4007584,-59.481917,184.10974)"
           id="plan__line"
           style="stroke:#aa7f31;stroke-width:1.54810667;stroke-opacity:1">
          <path
             id="path1013"
             d="m 151.79413,212.43902 -3.15668,3.16353 v 5.20752 h 9.67299 v -5.20752 h -3.35963 z m -1.59758,4.04614 h 2.30735 v 1.9269 h -2.30735 z"
             style="opacity:1;fill:none;fill-opacity:1;stroke:#aa7f31;stroke-width:0.40960321;stroke-linecap:round;stroke-linejoin:miter;stroke-miterlimit:4;stroke-dasharray:none;stroke-dashoffset:26.45669365;stroke-opacity:1;paint-order:stroke fill markers" />
          <path
             id="path1015"
             d="m 145.76336,209.10799 -1e-5,14.22887 -2.747,0.054 c 0,0 0.18748,2.62928 2.60069,3.2162 l 12.61645,0.002 h 0.0485 v -0.002 c 1.52891,-0.0266 2.75465,-1.27435 2.7336,-2.28289 0,-0.16309 -0.021,-15.21672 -0.021,-15.21672 z"
             style="opacity:1;fill:none;fill-opacity:1;stroke:#aa7f31;stroke-width:0.40960321;stroke-linecap:round;stroke-linejoin:miter;stroke-miterlimit:4;stroke-dasharray:none;stroke-dashoffset:26.45669365;stroke-opacity:1;paint-order:stroke fill markers" />
          <path
             id="path1017"
             d="m 143.06998,223.39642 c -0.15134,1.68312 1.52163,3.14259 2.69337,3.21013 v 0.003 h 0.0777 12.39241 c -2.13027,-0.005 -2.99994,-1.7058 -2.77112,-3.21292 -4.1308,0 -8.2616,-5e-5 -12.39238,9e-5 z m 15.16351,3.21292 h 0.0485 v -0.002 c -0.0163,6.7e-4 -0.0326,0.001 -0.0488,0.002 z"
             style="opacity:1;fill:none;fill-opacity:1;stroke:#aa7f31;stroke-width:0.40960321;stroke-linecap:round;stroke-linejoin:miter;stroke-miterlimit:4;stroke-dasharray:none;stroke-dashoffset:26.45669365;stroke-opacity:1;paint-order:stroke fill markers" />
        </g>
      </g>
    </g>
  </g>
</svg>
