<?xml version="1.0" encoding="UTF-8" standalone="no"?>
<svg
   xmlns:dc="http://purl.org/dc/elements/1.1/"
   xmlns:cc="http://creativecommons.org/ns#"
   xmlns:rdf="http://www.w3.org/1999/02/22-rdf-syntax-ns#"
   xmlns:svg="http://www.w3.org/2000/svg"
   xmlns="http://www.w3.org/2000/svg"
   id="svg8"
   version="1.1"
   viewBox="0 0 26.458333 26.458334"
   height="100"
   width="100">
  <defs
     id="defs2" />
  <metadata
     id="metadata5">
    <rdf:RDF>
      <cc:Work
         rdf:about="">
        <dc:format>image/svg+xml</dc:format>
        <dc:type
           rdf:resource="http://purl.org/dc/dcmitype/StillImage" />
        <dc:title></dc:title>
      </cc:Work>
    </rdf:RDF>
  </metadata>
  <g
     transform="translate(0,-270.54163)"
     id="layer1">
    <g
       id="g5330">
      <circle
         style="opacity:0.99900004;fill:none;fill-opacity:1;stroke:#000000;stroke-width:0.26458332;stroke-linecap:round;stroke-linejoin:miter;stroke-miterlimit:4;stroke-dasharray:none;stroke-dashoffset:26.45669365;stroke-opacity:1;paint-order:stroke fill markers"
         id="path3388"
         cx="13.229167"
         cy="283.77078"
         r="10.961308" />
      <path
         style="opacity:1;fill:none;fill-opacity:1;stroke:#000000;stroke-width:0.52916664;stroke-linecap:round;stroke-linejoin:miter;stroke-miterlimit:4;stroke-dasharray:none;stroke-dashoffset:26.45669365;stroke-opacity:1;paint-order:stroke fill markers"
         d="m 17.50779,289.1642 c 1.030342,-0.0165 1.785511,-0.7654 1.771319,-1.38983 0,-0.10099 -0.01415,-9.4215 -0.01415,-9.4215 l -10.2643574,-8e-5 v 8.85165 m 8.4036974,1.98438 h 0.03262"
         id="rect1078" />
      <path
         style="opacity:1;fill:none;fill-opacity:1;stroke:#000000;stroke-width:0.52916664;stroke-linecap:round;stroke-linejoin:miter;stroke-miterlimit:4;stroke-dasharray:none;stroke-dashoffset:26.45669365;stroke-opacity:1;paint-order:stroke fill markers"
         d="m 7.1855096,287.19953 c -0.1019823,1.04211 1.0254425,1.94575 1.8150853,1.98756 v 0.002 h 0.052363 8.3513211 c -1.435601,-0.003 -2.021671,-1.05615 -1.867474,-1.98929 -2.783765,0 -5.5675369,-3e-5 -8.3513084,5e-5 z m 10.2187894,1.98929 h 0.03262 v -0.001 c -0.01092,4.2e-4 -0.0219,6.2e-4 -0.03289,0.001 z"
         id="path1080" />
      <path
         id="path1013"
         d="m 13.08728,280.41531 -2.127306,1.95871 v 3.22426 h 6.518687 v -3.22426 h -2.264075 z m -1.076619,2.50518 h 1.554937 v 1.19305 h -1.554937 z"
         style="opacity:1;fill:none;fill-opacity:1;stroke:#000000;stroke-width:0.26458332;stroke-linecap:round;stroke-linejoin:miter;stroke-miterlimit:4;stroke-dasharray:none;stroke-dashoffset:26.45669365;stroke-opacity:1;paint-order:stroke fill markers" />
      <path
         id="path1015"
         d="m 9.0231067,278.35288 -6.7e-6,8.80987 -1.8512202,0.0334 c 0,0 0.1263439,1.62793 1.752621,1.99133 l 8.5023032,0.001 h 0.03268 v -0.001 c 1.030342,-0.0165 1.856376,-0.78902 1.84219,-1.41346 0,-0.10098 -0.01415,-9.4215 -0.01415,-9.4215 z"
         style="opacity:1;fill:none;fill-opacity:1;stroke:#000000;stroke-width:0.26458332;stroke-linecap:round;stroke-linejoin:miter;stroke-miterlimit:4;stroke-dasharray:none;stroke-dashoffset:26.45669365;stroke-opacity:1;paint-order:stroke fill markers" />
      <path
         id="path1017"
         d="m 7.2080214,287.19963 c -0.101989,1.04211 1.0254358,1.94574 1.8150786,1.98756 v 0.002 h 0.052363 8.351321 c -1.435602,-0.003 -2.021678,-1.05616 -1.867475,-1.98929 -2.783772,0 -5.5675425,-4e-5 -8.3513006,5e-5 z m 10.2187826,1.98929 h 0.03268 v -10e-4 c -0.01098,4.1e-4 -0.02197,6.2e-4 -0.03289,10e-4 z"
         style="opacity:1;fill:none;fill-opacity:1;stroke:#000000;stroke-width:0.26458332;stroke-linecap:round;stroke-linejoin:miter;stroke-miterlimit:4;stroke-dasharray:none;stroke-dashoffset:26.45669365;stroke-opacity:1;paint-order:stroke fill markers" />
    </g>
  </g>
</svg>
